<?xml version="1.0" ?><!DOCTYPE svg  PUBLIC '-//W3C//DTD SVG 1.1//EN'  'http://www.w3.org/Graphics/SVG/1.1/DTD/svg11.dtd'><svg enable-background="new 0 0 512 512" height="512px" id="Calque_1" version="1.1" viewBox="0 0 512 512" width="512px" xml:space="preserve" xmlns="http://www.w3.org/2000/svg" xmlns:xlink="http://www.w3.org/1999/xlink"><g><g><g id="XMLID_1_"><g><rect fill="#1A171B" height="19.63" width="19.63" x="472.62" y="433.25"/><rect fill="#1A171B" height="19.75" width="19.63" x="472.62" y="413.5"/><rect fill="#1A171B" height="19.62" width="19.63" x="472.62" y="393.88"/><rect fill="#1A171B" height="19.76" width="19.63" x="472.62" y="374.12"/><rect fill="#1A171B" height="19.74" width="19.63" x="472.62" y="295.38"/><rect fill="#1A171B" height="19.63" width="19.63" x="472.62" y="275.75"/><rect fill="#1A171B" height="19.75" width="19.63" x="472.62" y="256"/><rect fill="#1A171B" height="19.63" width="19.63" x="472.62" y="177.25"/><rect fill="#1A171B" height="19.75" width="19.63" x="472.62" y="157.5"/><rect fill="#1A171B" height="19.74" width="19.74" x="452.88" y="452.88"/><rect fill="#1A171B" height="19.63" width="19.74" x="452.88" y="433.25"/><rect fill="#CA9E64" height="19.75" width="19.74" x="452.88" y="413.5"/><rect fill="#CA9E64" height="19.62" width="19.74" x="452.88" y="393.88"/><rect fill="#1A171B" height="19.76" width="19.74" x="452.88" y="374.12"/><rect fill="#1A171B" height="19.62" width="19.74" x="452.88" y="354.5"/><rect fill="#1A171B" height="19.75" width="19.74" x="452.88" y="334.75"/><rect fill="#1A171B" height="19.63" width="19.74" x="452.88" y="315.12"/><rect fill="#1A171B" height="19.74" width="19.74" x="452.88" y="295.38"/><rect fill="#97BF0D" height="19.63" width="19.74" x="452.88" y="275.75"/><rect fill="#1A171B" height="19.75" width="19.74" x="452.88" y="256"/><rect fill="#1A171B" height="19.75" width="19.74" x="452.88" y="236.25"/><rect fill="#1A171B" height="19.63" width="19.74" x="452.88" y="216.62"/><rect fill="#1A171B" height="19.74" width="19.74" x="452.88" y="196.88"/><rect fill="#1A171B" height="19.63" width="19.74" x="452.88" y="177.25"/><rect fill="#1A171B" height="19.75" width="19.74" x="452.88" y="157.5"/><rect fill="#1A171B" height="19.62" width="19.74" x="452.88" y="137.88"/><rect fill="#1A171B" height="19.74" width="19.63" x="433.25" y="452.88"/><rect fill="#B07F48" height="19.63" width="19.63" x="433.25" y="433.25"/><rect fill="#CA9E64" height="19.75" width="19.63" x="433.25" y="413.5"/><rect fill="#CA9E64" height="19.62" width="19.63" x="433.25" y="393.88"/><rect fill="#1A171B" height="19.76" width="19.63" x="433.25" y="374.12"/><rect fill="#41281B" height="19.62" width="19.63" x="433.25" y="354.5"/><rect fill="#673B15" height="19.75" width="19.63" x="433.25" y="334.75"/><rect fill="#F8B334" height="19.63" width="19.63" x="433.25" y="315.12"/><rect fill="#1A171B" height="19.74" width="19.63" x="433.25" y="295.38"/><rect fill="#97BF0D" height="19.63" width="19.63" x="433.25" y="275.75"/><rect fill="#97BF0D" height="19.75" width="19.63" x="433.25" y="256"/><rect fill="#1A171B" height="19.75" width="19.63" x="433.25" y="236.25"/><rect fill="#E5352D" height="19.63" width="19.63" x="433.25" y="216.62"/><rect fill="#E5352D" height="19.74" width="19.63" x="433.25" y="196.88"/><rect fill="#1A171B" height="19.63" width="19.63" x="433.25" y="177.25"/><rect fill="#CA9E64" height="19.75" width="19.63" x="433.25" y="157.5"/><rect fill="#1A171B" height="19.62" width="19.63" x="433.25" y="137.88"/><rect fill="#1A171B" height="19.76" width="19.63" x="433.25" y="118.12"/><rect fill="#1A171B" height="19.74" width="19.75" x="413.5" y="452.88"/><rect fill="#B07F48" height="19.63" width="19.75" x="413.5" y="433.25"/><rect fill="#CA9E64" height="19.75" width="19.75" x="413.5" y="413.5"/><rect fill="#CA9E64" height="19.62" width="19.75" x="413.5" y="393.88"/><rect fill="#1A171B" height="19.76" width="19.75" x="413.5" y="374.12"/><rect fill="#41281B" height="19.62" width="19.75" x="413.5" y="354.5"/><rect fill="#673B15" height="19.75" width="19.75" x="413.5" y="334.75"/><rect fill="#F8B334" height="19.63" width="19.75" x="413.5" y="315.12"/><rect fill="#1A171B" height="19.74" width="19.75" x="413.5" y="295.38"/><rect fill="#97BF0D" height="19.63" width="19.75" x="413.5" y="275.75"/><rect fill="#97BF0D" height="19.75" width="19.75" x="413.5" y="256"/><rect fill="#1A171B" height="19.75" width="19.75" x="413.5" y="236.25"/><rect fill="#E5352D" height="19.63" width="19.75" x="413.5" y="216.62"/><rect fill="#E5352D" height="19.74" width="19.75" x="413.5" y="196.88"/><rect fill="#1A171B" height="19.63" width="19.75" x="413.5" y="177.25"/><rect fill="#CA9E64" height="19.75" width="19.75" x="413.5" y="157.5"/><rect fill="#CA9E64" height="19.62" width="19.75" x="413.5" y="137.88"/><rect fill="#1A171B" height="19.76" width="19.75" x="413.5" y="118.12"/><rect fill="#1A171B" height="19.62" width="19.75" x="413.5" y="98.5"/><rect fill="#1A171B" height="19.74" width="19.62" x="393.88" y="452.88"/><rect fill="#B07F48" height="19.63" width="19.62" x="393.88" y="433.25"/><rect fill="#CA9E64" height="19.75" width="19.62" x="393.88" y="413.5"/><rect fill="#CA9E64" height="19.62" width="19.62" x="393.88" y="393.88"/><rect fill="#1A171B" height="19.76" width="19.62" x="393.88" y="374.12"/><rect fill="#41281B" height="19.62" width="19.62" x="393.88" y="354.5"/><rect fill="#673B15" height="19.75" width="19.62" x="393.88" y="334.75"/><rect fill="#F8B334" height="19.63" width="19.62" x="393.88" y="315.12"/><rect fill="#1A171B" height="19.74" width="19.62" x="393.88" y="295.38"/><rect fill="#97BF0D" height="19.63" width="19.62" x="393.88" y="275.75"/><rect fill="#97BF0D" height="19.75" width="19.62" x="393.88" y="256"/><rect fill="#1A171B" height="19.75" width="19.62" x="393.88" y="236.25"/><rect fill="#E5352D" height="19.63" width="19.62" x="393.88" y="216.62"/><rect fill="#E5352D" height="19.74" width="19.62" x="393.88" y="196.88"/><rect fill="#1A171B" height="19.63" width="19.62" x="393.88" y="177.25"/><rect fill="#CA9E64" height="19.75" width="19.62" x="393.88" y="157.5"/><rect fill="#CA9E64" height="19.62" width="19.62" x="393.88" y="137.88"/><rect fill="#CA9E64" height="19.76" width="19.62" x="393.88" y="118.12"/><rect fill="#1A171B" height="19.62" width="19.62" x="393.88" y="98.5"/><rect fill="#1A171B" height="19.75" width="19.62" x="393.88" y="78.75"/><rect fill="#1A171B" height="19.74" width="19.76" x="374.12" y="452.88"/><rect fill="#B07F48" height="19.63" width="19.76" x="374.12" y="433.25"/><rect fill="#CA9E64" height="19.75" width="19.76" x="374.12" y="413.5"/><rect fill="#CA9E64" height="19.62" width="19.76" x="374.12" y="393.88"/><rect fill="#1A171B" height="19.76" width="19.76" x="374.12" y="374.12"/><rect fill="#41281B" height="19.62" width="19.76" x="374.12" y="354.5"/><rect fill="#673B15" height="19.75" width="19.76" x="374.12" y="334.75"/><rect fill="#F8B334" height="19.63" width="19.76" x="374.12" y="315.12"/><rect fill="#1A171B" height="19.74" width="19.76" x="374.12" y="295.38"/><rect fill="#41A62A" height="19.63" width="19.76" x="374.12" y="275.75"/><rect fill="#41A62A" height="19.75" width="19.76" x="374.12" y="256"/><rect fill="#1A171B" height="19.75" width="19.76" x="374.12" y="236.25"/><rect fill="#E5352D" height="19.63" width="19.76" x="374.12" y="216.62"/><rect fill="#E5352D" height="19.74" width="19.76" x="374.12" y="196.88"/><rect fill="#1A171B" height="19.63" width="19.76" x="374.12" y="177.25"/><rect fill="#CA9E64" height="19.75" width="19.76" x="374.12" y="157.5"/><rect fill="#CA9E64" height="19.62" width="19.76" x="374.12" y="137.88"/><rect fill="#CA9E64" height="19.76" width="19.76" x="374.12" y="118.12"/><rect fill="#CA9E64" height="19.62" width="19.76" x="374.12" y="98.5"/><rect fill="#1A171B" height="19.75" width="19.76" x="374.12" y="78.75"/><rect fill="#1A171B" height="19.74" width="19.62" x="354.5" y="452.88"/><rect fill="#B07F48" height="19.63" width="19.62" x="354.5" y="433.25"/><rect fill="#CA9E64" height="19.75" width="19.62" x="354.5" y="413.5"/><rect fill="#CA9E64" height="19.62" width="19.62" x="354.5" y="393.88"/><rect fill="#1A171B" height="19.76" width="19.62" x="354.5" y="374.12"/><rect fill="#41281B" height="19.62" width="19.62" x="354.5" y="354.5"/><rect fill="#673B15" height="19.75" width="19.62" x="354.5" y="334.75"/><rect fill="#F8B334" height="19.63" width="19.62" x="354.5" y="315.12"/><rect fill="#1A171B" height="19.74" width="19.62" x="354.5" y="295.38"/><rect fill="#1A171B" height="19.63" width="19.62" x="354.5" y="275.75"/><rect fill="#41A62A" height="19.75" width="19.62" x="354.5" y="256"/><rect fill="#1A171B" height="19.75" width="19.62" x="354.5" y="236.25"/><rect fill="#E5352D" height="19.63" width="19.62" x="354.5" y="216.62"/><rect fill="#E5352D" height="19.74" width="19.62" x="354.5" y="196.88"/><rect fill="#1A171B" height="19.63" width="19.62" x="354.5" y="177.25"/><rect fill="#CA9E64" height="19.75" width="19.62" x="354.5" y="157.5"/><rect fill="#CA9E64" height="19.62" width="19.62" x="354.5" y="137.88"/><rect fill="#CA9E64" height="19.76" width="19.62" x="354.5" y="118.12"/><rect fill="#CA9E64" height="19.62" width="19.62" x="354.5" y="98.5"/><rect fill="#1A171B" height="19.75" width="19.62" x="354.5" y="78.75"/><rect fill="#1A171B" height="19.63" width="19.62" x="354.5" y="59.12"/><rect fill="#1A171B" height="19.74" width="19.75" x="334.75" y="452.88"/><rect fill="#B07F48" height="19.63" width="19.75" x="334.75" y="433.25"/><rect fill="#CA9E64" height="19.75" width="19.75" x="334.75" y="413.5"/><rect fill="#CA9E64" height="19.62" width="19.75" x="334.75" y="393.88"/><rect fill="#1A171B" height="19.76" width="19.75" x="334.75" y="374.12"/><rect fill="#41281B" height="19.62" width="19.75" x="334.75" y="354.5"/><rect fill="#673B15" height="19.75" width="19.75" x="334.75" y="334.75"/><rect fill="#F8B334" height="19.63" width="19.75" x="334.75" y="315.12"/><rect fill="#F8B334" height="19.74" width="19.75" x="334.75" y="295.38"/><rect fill="#1A171B" height="19.63" width="19.75" x="334.75" y="275.75"/><rect fill="#41A62A" height="19.75" width="19.75" x="334.75" y="256"/><rect fill="#1A171B" height="19.75" width="19.75" x="334.75" y="236.25"/><rect fill="#E5352D" height="19.63" width="19.75" x="334.75" y="216.62"/><rect fill="#E5352D" height="19.74" width="19.75" x="334.75" y="196.88"/><rect fill="#1A171B" height="19.63" width="19.75" x="334.75" y="177.25"/><rect fill="#CA9E64" height="19.75" width="19.75" x="334.75" y="157.5"/><rect fill="#CA9E64" height="19.62" width="19.75" x="334.75" y="137.88"/><rect fill="#CA9E64" height="19.76" width="19.75" x="334.75" y="118.12"/><rect fill="#CA9E64" height="19.62" width="19.75" x="334.75" y="98.5"/><rect fill="#CA9E64" height="19.75" width="19.75" x="334.75" y="78.75"/><rect fill="#1A171B" height="19.63" width="19.75" x="334.75" y="59.12"/><rect fill="#1A171B" height="19.74" width="19.63" x="315.12" y="452.88"/><rect fill="#B07F48" height="19.63" width="19.63" x="315.12" y="433.25"/><rect fill="#CA9E64" height="19.75" width="19.63" x="315.12" y="413.5"/><rect fill="#CA9E64" height="19.62" width="19.63" x="315.12" y="393.88"/><rect fill="#1A171B" height="19.76" width="19.63" x="315.12" y="374.12"/><rect fill="#41281B" height="19.62" width="19.63" x="315.12" y="354.5"/><rect fill="#673B15" height="19.75" width="19.63" x="315.12" y="334.75"/><rect fill="#F8B334" height="19.63" width="19.63" x="315.12" y="315.12"/><rect fill="#F8B334" height="19.74" width="19.63" x="315.12" y="295.38"/><rect fill="#1A171B" height="19.63" width="19.63" x="315.12" y="275.75"/><rect fill="#1A171B" height="19.75" width="19.63" x="315.12" y="256"/><rect fill="#1A171B" height="19.75" width="19.63" x="315.12" y="236.25"/><rect fill="#E5352D" height="19.63" width="19.63" x="315.12" y="216.62"/><rect fill="#E5352D" height="19.74" width="19.63" x="315.12" y="196.88"/><rect fill="#1A171B" height="19.63" width="19.63" x="315.12" y="177.25"/><rect fill="#CA9E64" height="19.75" width="19.63" x="315.12" y="157.5"/><rect fill="#915E36" height="19.62" width="19.63" x="315.12" y="137.88"/><rect fill="#CA9E64" height="19.76" width="19.63" x="315.12" y="118.12"/><rect fill="#CA9E64" height="19.62" width="19.63" x="315.12" y="98.5"/><rect fill="#CA9E64" height="19.75" width="19.63" x="315.12" y="78.75"/><rect fill="#1A171B" height="19.63" width="19.63" x="315.12" y="59.12"/><rect fill="#1A171B" height="19.74" width="19.74" x="295.38" y="452.88"/><rect fill="#B07F48" height="19.63" width="19.74" x="295.38" y="433.25"/><rect fill="#CA9E64" height="19.75" width="19.74" x="295.38" y="413.5"/><rect fill="#CA9E64" height="19.62" width="19.74" x="295.38" y="393.88"/><rect fill="#1A171B" height="19.76" width="19.74" x="295.38" y="374.12"/><rect fill="#41281B" height="19.62" width="19.74" x="295.38" y="354.5"/><rect fill="#673B15" height="19.75" width="19.74" x="295.38" y="334.75"/><rect fill="#F8B334" height="19.63" width="19.74" x="295.38" y="315.12"/><rect fill="#1A171B" height="19.74" width="19.74" x="295.38" y="295.38"/><rect fill="#1A171B" height="19.63" width="19.74" x="295.38" y="275.75"/><rect fill="#97BF0D" height="19.75" width="19.74" x="295.38" y="256"/><rect fill="#1A171B" height="19.75" width="19.74" x="295.38" y="236.25"/><rect fill="#E5352D" height="19.63" width="19.74" x="295.38" y="216.62"/><rect fill="#E5352D" height="19.74" width="19.74" x="295.38" y="196.88"/><rect fill="#1A171B" height="19.63" width="19.74" x="295.38" y="177.25"/><rect fill="#CA9E64" height="19.75" width="19.74" x="295.38" y="157.5"/><rect fill="#CA9E64" height="19.62" width="19.74" x="295.38" y="137.88"/><rect fill="#CA9E64" height="19.76" width="19.74" x="295.38" y="118.12"/><rect fill="#CA9E64" height="19.62" width="19.74" x="295.38" y="98.5"/><rect fill="#CA9E64" height="19.75" width="19.74" x="295.38" y="78.75"/><rect fill="#1A171B" height="19.63" width="19.74" x="295.38" y="59.12"/><rect fill="#1A171B" height="19.74" width="19.63" x="275.75" y="452.88"/><rect fill="#B07F48" height="19.63" width="19.63" x="275.75" y="433.25"/><rect fill="#CA9E64" height="19.75" width="19.63" x="275.75" y="413.5"/><rect fill="#CA9E64" height="19.62" width="19.63" x="275.75" y="393.88"/><rect fill="#1A171B" height="19.76" width="19.63" x="275.75" y="374.12"/><rect fill="#41281B" height="19.62" width="19.63" x="275.75" y="354.5"/><rect fill="#673B15" height="19.75" width="19.63" x="275.75" y="334.75"/><rect fill="#F8B334" height="19.63" width="19.63" x="275.75" y="315.12"/><rect fill="#1A171B" height="19.74" width="19.63" x="275.75" y="295.38"/><rect fill="#97BF0D" height="19.63" width="19.63" x="275.75" y="275.75"/><rect fill="#97BF0D" height="19.75" width="19.63" x="275.75" y="256"/><rect fill="#1A171B" height="19.75" width="19.63" x="275.75" y="236.25"/><rect fill="#E5352D" height="19.63" width="19.63" x="275.75" y="216.62"/><rect fill="#E5352D" height="19.74" width="19.63" x="275.75" y="196.88"/><rect fill="#1A171B" height="19.63" width="19.63" x="275.75" y="177.25"/><rect fill="#CA9E64" height="19.75" width="19.63" x="275.75" y="157.5"/><rect fill="#CA9E64" height="19.62" width="19.63" x="275.75" y="137.88"/><rect fill="#CA9E64" height="19.76" width="19.63" x="275.75" y="118.12"/><rect fill="#915E36" height="19.62" width="19.63" x="275.75" y="98.5"/><rect fill="#CA9E64" height="19.75" width="19.63" x="275.75" y="78.75"/><rect fill="#1A171B" height="19.63" width="19.63" x="275.75" y="59.12"/><rect fill="#1A171B" height="19.74" width="19.75" x="256" y="452.88"/><rect fill="#B07F48" height="19.63" width="19.75" x="256" y="433.25"/><rect fill="#CA9E64" height="19.75" width="19.75" x="256" y="413.5"/><rect fill="#CA9E64" height="19.62" width="19.75" x="256" y="393.88"/><rect fill="#1A171B" height="19.76" width="19.75" x="256" y="374.12"/><rect fill="#41281B" height="19.62" width="19.75" x="256" y="354.5"/><rect fill="#673B15" height="19.75" width="19.75" x="256" y="334.75"/><rect fill="#F8B334" height="19.63" width="19.75" x="256" y="315.12"/><rect fill="#1A171B" height="19.74" width="19.75" x="256" y="295.38"/><rect fill="#97BF0D" height="19.63" width="19.75" x="256" y="275.75"/><rect fill="#97BF0D" height="19.75" width="19.75" x="256" y="256"/><rect fill="#1A171B" height="19.75" width="19.75" x="256" y="236.25"/><rect fill="#E5352D" height="19.63" width="19.75" x="256" y="216.62"/><rect fill="#E5352D" height="19.74" width="19.75" x="256" y="196.88"/><rect fill="#1A171B" height="19.63" width="19.75" x="256" y="177.25"/><rect fill="#CA9E64" height="19.75" width="19.75" x="256" y="157.5"/><rect fill="#CA9E64" height="19.62" width="19.75" x="256" y="137.88"/><rect fill="#CA9E64" height="19.76" width="19.75" x="256" y="118.12"/><rect fill="#CA9E64" height="19.62" width="19.75" x="256" y="98.5"/><rect fill="#CA9E64" height="19.75" width="19.75" x="256" y="78.75"/><rect fill="#1A171B" height="19.63" width="19.75" x="256" y="59.12"/><rect fill="#1A171B" height="19.74" width="19.75" x="236.25" y="452.88"/><rect fill="#B07F48" height="19.63" width="19.75" x="236.25" y="433.25"/><rect fill="#CA9E64" height="19.75" width="19.75" x="236.25" y="413.5"/><rect fill="#CA9E64" height="19.62" width="19.75" x="236.25" y="393.88"/><rect fill="#1A171B" height="19.76" width="19.75" x="236.25" y="374.12"/><rect fill="#41281B" height="19.62" width="19.75" x="236.25" y="354.5"/><rect fill="#673B15" height="19.75" width="19.75" x="236.25" y="334.75"/><rect fill="#F8B334" height="19.63" width="19.75" x="236.25" y="315.12"/><rect fill="#1A171B" height="19.74" width="19.75" x="236.25" y="295.38"/><rect fill="#41A62A" height="19.63" width="19.75" x="236.25" y="275.75"/><rect fill="#97BF0D" height="19.75" width="19.75" x="236.25" y="256"/><rect fill="#1A171B" height="19.75" width="19.75" x="236.25" y="236.25"/><rect fill="#E5352D" height="19.63" width="19.75" x="236.25" y="216.62"/><rect fill="#E5352D" height="19.74" width="19.75" x="236.25" y="196.88"/><rect fill="#1A171B" height="19.63" width="19.75" x="236.25" y="177.25"/><rect fill="#CA9E64" height="19.75" width="19.75" x="236.25" y="157.5"/><rect fill="#915E36" height="19.62" width="19.75" x="236.25" y="137.88"/><rect fill="#CA9E64" height="19.76" width="19.75" x="236.25" y="118.12"/><rect fill="#CA9E64" height="19.62" width="19.75" x="236.25" y="98.5"/><rect fill="#CA9E64" height="19.75" width="19.75" x="236.25" y="78.75"/><rect fill="#1A171B" height="19.63" width="19.75" x="236.25" y="59.12"/><rect fill="#1A171B" height="19.74" width="19.63" x="216.62" y="452.88"/><rect fill="#B07F48" height="19.63" width="19.63" x="216.62" y="433.25"/><rect fill="#CA9E64" height="19.75" width="19.63" x="216.62" y="413.5"/><rect fill="#CA9E64" height="19.62" width="19.63" x="216.62" y="393.88"/><rect fill="#1A171B" height="19.76" width="19.63" x="216.62" y="374.12"/><rect fill="#41281B" height="19.62" width="19.63" x="216.62" y="354.5"/><rect fill="#673B15" height="19.75" width="19.63" x="216.62" y="334.75"/><rect fill="#F8B334" height="19.63" width="19.63" x="216.62" y="315.12"/><rect fill="#1A171B" height="19.74" width="19.63" x="216.62" y="295.38"/><rect fill="#41A62A" height="19.63" width="19.63" x="216.62" y="275.75"/><rect fill="#41A62A" height="19.75" width="19.63" x="216.62" y="256"/><rect fill="#1A171B" height="19.75" width="19.63" x="216.62" y="236.25"/><rect fill="#E5352D" height="19.63" width="19.63" x="216.62" y="216.62"/><rect fill="#E5352D" height="19.74" width="19.63" x="216.62" y="196.88"/><rect fill="#1A171B" height="19.63" width="19.63" x="216.62" y="177.25"/><rect fill="#CA9E64" height="19.75" width="19.63" x="216.62" y="157.5"/><rect fill="#CA9E64" height="19.62" width="19.63" x="216.62" y="137.88"/><rect fill="#CA9E64" height="19.76" width="19.63" x="216.62" y="118.12"/><rect fill="#CA9E64" height="19.62" width="19.63" x="216.62" y="98.5"/><rect fill="#CA9E64" height="19.75" width="19.63" x="216.62" y="78.75"/><rect fill="#1A171B" height="19.63" width="19.63" x="216.62" y="59.12"/><rect fill="#1A171B" height="19.74" width="19.74" x="196.88" y="452.88"/><rect fill="#B07F48" height="19.63" width="19.74" x="196.88" y="433.25"/><rect fill="#CA9E64" height="19.75" width="19.74" x="196.88" y="413.5"/><rect fill="#CA9E64" height="19.62" width="19.74" x="196.88" y="393.88"/><rect fill="#1A171B" height="19.76" width="19.74" x="196.88" y="374.12"/><rect fill="#41281B" height="19.62" width="19.74" x="196.88" y="354.5"/><rect fill="#673B15" height="19.75" width="19.74" x="196.88" y="334.75"/><rect fill="#F8B334" height="19.63" width="19.74" x="196.88" y="315.12"/><rect fill="#1A171B" height="19.74" width="19.74" x="196.88" y="295.38"/><rect fill="#1A171B" height="19.63" width="19.74" x="196.88" y="275.75"/><rect fill="#41A62A" height="19.75" width="19.74" x="196.88" y="256"/><rect fill="#1A171B" height="19.75" width="19.74" x="196.88" y="236.25"/><rect fill="#E5352D" height="19.63" width="19.74" x="196.88" y="216.62"/><rect fill="#E5352D" height="19.74" width="19.74" x="196.88" y="196.88"/><rect fill="#1A171B" height="19.63" width="19.74" x="196.88" y="177.25"/><rect fill="#CA9E64" height="19.75" width="19.74" x="196.88" y="157.5"/><rect fill="#CA9E64" height="19.62" width="19.74" x="196.88" y="137.88"/><rect fill="#CA9E64" height="19.76" width="19.74" x="196.88" y="118.12"/><rect fill="#915E36" height="19.62" width="19.74" x="196.88" y="98.5"/><rect fill="#CA9E64" height="19.75" width="19.74" x="196.88" y="78.75"/><rect fill="#1A171B" height="19.63" width="19.74" x="196.88" y="59.12"/><rect fill="#1A171B" height="19.74" width="19.63" x="177.25" y="452.88"/><rect fill="#B07F48" height="19.63" width="19.63" x="177.25" y="433.25"/><rect fill="#CA9E64" height="19.75" width="19.63" x="177.25" y="413.5"/><rect fill="#CA9E64" height="19.62" width="19.63" x="177.25" y="393.88"/><rect fill="#1A171B" height="19.76" width="19.63" x="177.25" y="374.12"/><rect fill="#41281B" height="19.62" width="19.63" x="177.25" y="354.5"/><rect fill="#673B15" height="19.75" width="19.63" x="177.25" y="334.75"/><rect fill="#F8B334" height="19.63" width="19.63" x="177.25" y="315.12"/><rect fill="#F8B334" height="19.74" width="19.63" x="177.25" y="295.38"/><rect fill="#1A171B" height="19.63" width="19.63" x="177.25" y="275.75"/><rect fill="#1A171B" height="19.75" width="19.63" x="177.25" y="256"/><rect fill="#1A171B" height="19.75" width="19.63" x="177.25" y="236.25"/><rect fill="#E5352D" height="19.63" width="19.63" x="177.25" y="216.62"/><rect fill="#E5352D" height="19.74" width="19.63" x="177.25" y="196.88"/><rect fill="#1A171B" height="19.63" width="19.63" x="177.25" y="177.25"/><rect fill="#CA9E64" height="19.75" width="19.63" x="177.25" y="157.5"/><rect fill="#CA9E64" height="19.62" width="19.63" x="177.25" y="137.88"/><rect fill="#CA9E64" height="19.76" width="19.63" x="177.25" y="118.12"/><rect fill="#CA9E64" height="19.62" width="19.63" x="177.25" y="98.5"/><rect fill="#CA9E64" height="19.75" width="19.63" x="177.25" y="78.75"/><rect fill="#1A171B" height="19.63" width="19.63" x="177.25" y="59.12"/><rect fill="#1A171B" height="19.74" width="19.75" x="157.5" y="452.88"/><rect fill="#B07F48" height="19.63" width="19.75" x="157.5" y="433.25"/><rect fill="#CA9E64" height="19.75" width="19.75" x="157.5" y="413.5"/><rect fill="#CA9E64" height="19.62" width="19.75" x="157.5" y="393.88"/><rect fill="#1A171B" height="19.76" width="19.75" x="157.5" y="374.12"/><rect fill="#41281B" height="19.62" width="19.75" x="157.5" y="354.5"/><rect fill="#673B15" height="19.75" width="19.75" x="157.5" y="334.75"/><rect fill="#F8B334" height="19.63" width="19.75" x="157.5" y="315.12"/><rect fill="#F8B334" height="19.74" width="19.75" x="157.5" y="295.38"/><rect fill="#1A171B" height="19.63" width="19.75" x="157.5" y="275.75"/><rect fill="#97BF0D" height="19.75" width="19.75" x="157.5" y="256"/><rect fill="#1A171B" height="19.75" width="19.75" x="157.5" y="236.25"/><rect fill="#A5352D" height="19.63" width="19.75" x="157.5" y="216.62"/><rect fill="#E5352D" height="19.74" width="19.75" x="157.5" y="196.88"/><rect fill="#1A171B" height="19.63" width="19.75" x="157.5" y="177.25"/><rect fill="#CA9E64" height="19.75" width="19.75" x="157.5" y="157.5"/><rect fill="#915E36" height="19.62" width="19.75" x="157.5" y="137.88"/><rect fill="#CA9E64" height="19.76" width="19.75" x="157.5" y="118.12"/><rect fill="#B07F48" height="19.62" width="19.75" x="157.5" y="98.5"/><rect fill="#B07F48" height="19.75" width="19.75" x="157.5" y="78.75"/><rect fill="#1A171B" height="19.63" width="19.75" x="157.5" y="59.12"/><rect fill="#1A171B" height="19.74" width="19.62" x="137.88" y="452.88"/><rect fill="#B07F48" height="19.63" width="19.62" x="137.88" y="433.25"/><rect fill="#CA9E64" height="19.75" width="19.62" x="137.88" y="413.5"/><rect fill="#CA9E64" height="19.62" width="19.62" x="137.88" y="393.88"/><rect fill="#1A171B" height="19.76" width="19.62" x="137.88" y="374.12"/><rect fill="#41281B" height="19.62" width="19.62" x="137.88" y="354.5"/><rect fill="#673B15" height="19.75" width="19.62" x="137.88" y="334.75"/><rect fill="#F8B334" height="19.63" width="19.62" x="137.88" y="315.12"/><rect fill="#1A171B" height="19.74" width="19.62" x="137.88" y="295.38"/><rect fill="#1A171B" height="19.63" width="19.62" x="137.88" y="275.75"/><rect fill="#97BF0D" height="19.75" width="19.62" x="137.88" y="256"/><rect fill="#1A171B" height="19.75" width="19.62" x="137.88" y="236.25"/><rect fill="#A5352D" height="19.63" width="19.62" x="137.88" y="216.62"/><rect fill="#E5352D" height="19.74" width="19.62" x="137.88" y="196.88"/><rect fill="#1A171B" height="19.63" width="19.62" x="137.88" y="177.25"/><rect fill="#CA9E64" height="19.75" width="19.62" x="137.88" y="157.5"/><rect fill="#CA9E64" height="19.62" width="19.62" x="137.88" y="137.88"/><rect fill="#CA9E64" height="19.76" width="19.62" x="137.88" y="118.12"/><rect fill="#B07F48" height="19.62" width="19.62" x="137.88" y="98.5"/><rect fill="#1A171B" height="19.75" width="19.62" x="137.88" y="78.75"/><rect fill="#1A171B" height="19.63" width="19.62" x="137.88" y="59.12"/><rect fill="#1A171B" height="19.74" width="19.76" x="118.12" y="452.88"/><rect fill="#B07F48" height="19.63" width="19.76" x="118.12" y="433.25"/><rect fill="#CA9E64" height="19.75" width="19.76" x="118.12" y="413.5"/><rect fill="#CA9E64" height="19.62" width="19.76" x="118.12" y="393.88"/><rect fill="#1A171B" height="19.76" width="19.76" x="118.12" y="374.12"/><rect fill="#41281B" height="19.62" width="19.76" x="118.12" y="354.5"/><rect fill="#673B15" height="19.75" width="19.76" x="118.12" y="334.75"/><rect fill="#F8B334" height="19.63" width="19.76" x="118.12" y="315.12"/><rect fill="#1A171B" height="19.74" width="19.76" x="118.12" y="295.38"/><rect fill="#97BF0D" height="19.63" width="19.76" x="118.12" y="275.75"/><rect fill="#97BF0D" height="19.75" width="19.76" x="118.12" y="256"/><rect fill="#1A171B" height="19.75" width="19.76" x="118.12" y="236.25"/><rect fill="#A5352D" height="19.63" width="19.76" x="118.12" y="216.62"/><rect fill="#E5352D" height="19.74" width="19.76" x="118.12" y="196.88"/><rect fill="#1A171B" height="19.63" width="19.76" x="118.12" y="177.25"/><rect fill="#CA9E64" height="19.75" width="19.76" x="118.12" y="157.5"/><rect fill="#CA9E64" height="19.62" width="19.76" x="118.12" y="137.88"/><rect fill="#B07F48" height="19.76" width="19.76" x="118.12" y="118.12"/><rect fill="#B07F48" height="19.62" width="19.76" x="118.12" y="98.5"/><rect fill="#1A171B" height="19.75" width="19.76" x="118.12" y="78.75"/><rect fill="#1A171B" height="19.74" width="19.62" x="98.5" y="452.88"/><rect fill="#B07F48" height="19.63" width="19.62" x="98.5" y="433.25"/><rect fill="#CA9E64" height="19.75" width="19.62" x="98.5" y="413.5"/><rect fill="#CA9E64" height="19.62" width="19.62" x="98.5" y="393.88"/><rect fill="#1A171B" height="19.76" width="19.62" x="98.5" y="374.12"/><rect fill="#41281B" height="19.62" width="19.62" x="98.5" y="354.5"/><rect fill="#673B15" height="19.75" width="19.62" x="98.5" y="334.75"/><rect fill="#F8B334" height="19.63" width="19.62" x="98.5" y="315.12"/><rect fill="#1A171B" height="19.74" width="19.62" x="98.5" y="295.38"/><rect fill="#97BF0D" height="19.63" width="19.62" x="98.5" y="275.75"/><rect fill="#97BF0D" height="19.75" width="19.62" x="98.5" y="256"/><rect fill="#1A171B" height="19.75" width="19.62" x="98.5" y="236.25"/><rect fill="#A5352D" height="19.63" width="19.62" x="98.5" y="216.62"/><rect fill="#E5352D" height="19.74" width="19.62" x="98.5" y="196.88"/><rect fill="#1A171B" height="19.63" width="19.62" x="98.5" y="177.25"/><rect fill="#CA9E64" height="19.75" width="19.62" x="98.5" y="157.5"/><rect fill="#B07F48" height="19.62" width="19.62" x="98.5" y="137.88"/><rect fill="#B07F48" height="19.76" width="19.62" x="98.5" y="118.12"/><rect fill="#1A171B" height="19.62" width="19.62" x="98.5" y="98.5"/><rect fill="#1A171B" height="19.75" width="19.62" x="98.5" y="78.75"/><rect fill="#1A171B" height="19.74" width="19.75" x="78.75" y="452.88"/><rect fill="#B07F48" height="19.63" width="19.75" x="78.75" y="433.25"/><rect fill="#CA9E64" height="19.75" width="19.75" x="78.75" y="413.5"/><rect fill="#CA9E64" height="19.62" width="19.75" x="78.75" y="393.88"/><rect fill="#1A171B" height="19.76" width="19.75" x="78.75" y="374.12"/><rect fill="#41281B" height="19.62" width="19.75" x="78.75" y="354.5"/><rect fill="#41281B" height="19.75" width="19.75" x="78.75" y="334.75"/><rect fill="#F8B334" height="19.63" width="19.75" x="78.75" y="315.12"/><rect fill="#1A171B" height="19.74" width="19.75" x="78.75" y="295.38"/><rect fill="#97BF0D" height="19.63" width="19.75" x="78.75" y="275.75"/><rect fill="#41A62A" height="19.75" width="19.75" x="78.75" y="256"/><rect fill="#1A171B" height="19.75" width="19.75" x="78.75" y="236.25"/><rect fill="#A5352D" height="19.63" width="19.75" x="78.75" y="216.62"/><rect fill="#E5352D" height="19.74" width="19.75" x="78.75" y="196.88"/><rect fill="#1A171B" height="19.63" width="19.75" x="78.75" y="177.25"/><rect fill="#B07F48" height="19.75" width="19.75" x="78.75" y="157.5"/><rect fill="#B07F48" height="19.62" width="19.75" x="78.75" y="137.88"/><rect fill="#1A171B" height="19.76" width="19.75" x="78.75" y="118.12"/><rect fill="#1A171B" height="19.62" width="19.75" x="78.75" y="98.5"/><rect fill="#1A171B" height="19.74" width="19.63" x="59.12" y="452.88"/><rect fill="#B07F48" height="19.63" width="19.63" x="59.12" y="433.25"/><rect fill="#B07F48" height="19.75" width="19.63" x="59.12" y="413.5"/><rect fill="#CA9E64" height="19.62" width="19.63" x="59.12" y="393.88"/><rect fill="#1A171B" height="19.76" width="19.63" x="59.12" y="374.12"/><rect fill="#41281B" height="19.62" width="19.63" x="59.12" y="354.5"/><rect fill="#41281B" height="19.75" width="19.63" x="59.12" y="334.75"/><rect fill="#F8B334" height="19.63" width="19.63" x="59.12" y="315.12"/><rect fill="#1A171B" height="19.74" width="19.63" x="59.12" y="295.38"/><rect fill="#41A62A" height="19.63" width="19.63" x="59.12" y="275.75"/><rect fill="#41A62A" height="19.75" width="19.63" x="59.12" y="256"/><rect fill="#1A171B" height="19.75" width="19.63" x="59.12" y="236.25"/><rect fill="#A5352D" height="19.63" width="19.63" x="59.12" y="216.62"/><rect fill="#A5352D" height="19.74" width="19.63" x="59.12" y="196.88"/><rect fill="#1A171B" height="19.63" width="19.63" x="59.12" y="177.25"/><rect fill="#B07F48" height="19.75" width="19.63" x="59.12" y="157.5"/><rect fill="#1A171B" height="19.62" width="19.63" x="59.12" y="137.88"/><rect fill="#1A171B" height="19.76" width="19.63" x="59.12" y="118.12"/><rect fill="#1A171B" height="19.74" width="19.74" x="39.38" y="452.88"/><rect fill="#1A171B" height="19.63" width="19.74" x="39.38" y="433.25"/><rect fill="#B07F48" height="19.75" width="19.74" x="39.38" y="413.5"/><rect fill="#B07F48" height="19.62" width="19.74" x="39.38" y="393.88"/><rect fill="#1A171B" height="19.76" width="19.74" x="39.38" y="374.12"/><rect fill="#1A171B" height="19.62" width="19.74" x="39.38" y="354.5"/><rect fill="#1A171B" height="19.75" width="19.74" x="39.38" y="334.75"/><rect fill="#1A171B" height="19.63" width="19.74" x="39.38" y="315.12"/><rect fill="#1A171B" height="19.74" width="19.74" x="39.38" y="295.38"/><rect fill="#41A62A" height="19.63" width="19.74" x="39.38" y="275.75"/><rect fill="#1A171B" height="19.75" width="19.74" x="39.38" y="256"/><rect fill="#1A171B" height="19.75" width="19.74" x="39.38" y="236.25"/><rect fill="#1A171B" height="19.63" width="19.74" x="39.38" y="216.62"/><rect fill="#1A171B" height="19.74" width="19.74" x="39.38" y="196.88"/><rect fill="#1A171B" height="19.63" width="19.74" x="39.38" y="177.25"/><rect fill="#1A171B" height="19.75" width="19.74" x="39.38" y="157.5"/><rect fill="#1A171B" height="19.62" width="19.74" x="39.38" y="137.88"/><rect fill="#1A171B" height="19.63" width="19.63" x="19.75" y="433.25"/><rect fill="#1A171B" height="19.75" width="19.63" x="19.75" y="413.5"/><rect fill="#1A171B" height="19.62" width="19.63" x="19.75" y="393.88"/><rect fill="#1A171B" height="19.76" width="19.63" x="19.75" y="374.12"/><rect fill="#1A171B" height="19.74" width="19.63" x="19.75" y="295.38"/><rect fill="#1A171B" height="19.63" width="19.63" x="19.75" y="275.75"/><rect fill="#1A171B" height="19.75" width="19.63" x="19.75" y="256"/><rect fill="#1A171B" height="19.63" width="19.63" x="19.75" y="177.25"/><rect fill="#1A171B" height="19.75" width="19.63" x="19.75" y="157.5"/></g><g/></g></g></g></svg>